<?xml version="1.0" encoding="UTF-8" standalone="no"?>
<!-- Generator: Adobe Illustrator 19.0.0, SVG Export Plug-In . SVG Version: 6.00 Build 0)  -->

<svg
   version="1.1"
   id="layer"
   x="0px"
   y="0px"
   viewBox="-153 -46 365 365.00001"
   xml:space="preserve"
   width="365"
   height="365"
   sodipodi:docname="Telespazio.svg"
   inkscape:version="1.1.1 (3bf5ae0d25, 2021-09-20)"
   xmlns:inkscape="http://www.inkscape.org/namespaces/inkscape"
   xmlns:sodipodi="http://sodipodi.sourceforge.net/DTD/sodipodi-0.dtd"
   xmlns="http://www.w3.org/2000/svg"
   xmlns:svg="http://www.w3.org/2000/svg"><sodipodi:namedview
   id="namedview6"
   pagecolor="#ffffff"
   bordercolor="#666666"
   borderopacity="1.0"
   inkscape:pageshadow="2"
   inkscape:pageopacity="0.0"
   inkscape:pagecheckerboard="true"
   showgrid="false"
   inkscape:zoom="1.0573922"
   inkscape:cx="171.6487"
   inkscape:cy="48.231866"
   inkscape:window-width="1920"
   inkscape:window-height="1027"
   inkscape:window-x="0"
   inkscape:window-y="0"
   inkscape:window-maximized="1"
   inkscape:current-layer="layer" /><defs
   id="defs1" />
<style
   type="text/css"
   id="style1">
	.st0{fill:#EB4060;}
</style>
<path
   id="XMLID_1_"
   class="st0"
   d="M 108.22937,259.48229 C 35.31067,228.64603 -11.125119,149.92285 -11.125119,149.92285 c 0,0 47.161348,44.98467 155.632439,74.00704 1.8139,0.36278 3.26502,1.8139 3.99058,3.6278 0.72556,1.81389 0.36278,3.62779 -0.72556,5.07891 l -23.94345,29.02237 c -1.08834,1.45112 -2.90224,2.17668 -4.71614,1.8139 -0.36278,0 -1.08833,0 -1.45111,-0.36278 -1.45112,-0.36278 -2.90224,-1.08834 -3.99058,-1.45112 v 0 l -1.08834,-0.36278 -4.35335,-1.8139 M -5.3206459,129.24441 172.07857,154.27621 h 0.36278 0.36278 c 0.36278,0 0.36278,-0.36278 0.72556,-0.36278 1.8139,-1.08834 1.8139,-3.26502 1.8139,-3.99058 0.72556,-5.44169 2.17668,-23.58067 2.90223,-33.37572 0.36278,-3.26502 -2.17667,-6.53003 -5.44169,-6.89281 -1.8139,-0.36278 -10.52061,-1.08834 -17.7762,-1.08834 C 111.1316,108.2032 -5.3206459,129.24441 -5.3206459,129.24441 M 130.35892,-8.249062 l -0.72556,0.36278 h -0.36278 v 0 l -5.80447,2.176677 C 54.537989,20.410528 12.455555,76.278586 -5.6834249,102.39872 49.459074,51.609573 144.8701,33.833373 154.66515,31.656695 c 1.8139,-0.362779 3.26502,-1.451118 3.99058,-2.902237 0.72556,-1.451118 0.72556,-3.627796 -0.36278,-5.078914 -3.6278,-5.441694 -16.68787,-23.58067509 -21.76678,-30.110708 -1.08834,-1.451118 -2.53946,-2.176678 -4.35335,-2.176678 -0.36278,0.36278 -1.08834,0.36278 -1.8139,0.36278 M 43.291821,-40.173666 8.4649791,-37.271429 c -0.725559,0 -2.539457,0.362779 -3.627796,0.725559 -0.725559,0.36278 -1.088339,0.725559 -1.451118,1.088339 l -5.804474,7.618371 c -1.813898,2.176678 -3.265016,4.716135 -4.716135,6.892813 -0.362779,0.36278 -0.725559,0.725559 -0.725559,1.088339 l -2.9022371,4.716135 c -8.70671,15.23674191 -27.20847,60.221414 -22.492335,117.903373 0.725559,-6.530036 3.990575,-20.67844 5.441694,-25.031795 18.5017601,-53.691381 58.770295,-93.597138 75.095378,-108.471101 1.813898,-1.451119 2.176677,-3.990576 1.451118,-6.167254 -0.725559,-2.176677 -2.902237,-3.265016 -4.716135,-3.265016 h -0.725559 m -124.79618,63.123651 c -7.2556,10.883388 -14.14841,30.473486 -14.51119,31.561825 -0.72556,1.451119 -0.36278,2.902237 0,4.716135 8.70671,20.678437 45.347453,46.435795 45.347453,46.435795 0,0 -17.776203,-32.65017 -19.952883,-74.732604 v -4.353355 c 0,-2.539457 -1.81389,-4.716135 -4.35335,-5.441694 -0.36278,0 -1.08834,-0.36278 -1.45112,-0.36278 -2.17668,-0.725559 -3.99057,0.36278 -5.07891,2.176678 M -101.09446,188.37749 c -1.08834,1.08834 -1.45112,2.90224 -1.08834,4.35335 0.72556,3.6278 3.627801,22.49234 7.981151,34.10129 1.8139,4.35335 5.80447,3.62779 6.16725,3.62779 3.6278,0 4.71614,-5.44169 6.16726,-8.70671 8.34393,-31.19904 30.110704,-71.46758 30.110704,-71.46758 0,0 -34.464064,18.13898 -49.338025,38.09186 M 5.9255221,312.08533 c 0,0 1.088339,0.72556 1.813898,0.72556 v 0 l 1.451118,0.36278 39.5429769,-6.53003 1.088339,-0.36278 c 1.088339,-0.36278 2.176677,-1.45112 2.539457,-2.90224 1.088339,-2.17667 0.36278,-4.35335 -1.088339,-6.16725 -2.539457,-2.53946 -6.530033,-6.16725 -11.246167,-11.60895 l -2.539458,-2.53945 -0.362779,-0.36278 c -62.398092,-61.30976 -70.016464,-130.23788 -70.016464,-130.23788 0,0 -13.422845,101.21551 38.8174181,159.62302 M -111.97785,105.30096 v 0 c -2.17668,0.72556 -3.99058,2.17668 -4.35336,4.35336 -1.45111,5.07891 -3.26501,24.30623 -2.90223,27.93403 0.36278,1.45111 1.08834,2.17667 2.53946,3.26501 l 1.81389,0.36278 h 1.08834 c 8.34393,-1.08834 31.924611,-8.34393 41.719661,-11.60895 l 16.687858,-4.71613 -17.776198,-3.99058 c -3.99058,-0.72556 -23.2179,-5.44169 -31.561831,-13.06006 -0.72556,-0.36278 -1.08834,-1.08834 -1.45112,-1.45112 -1.08834,-1.08834 -2.90223,-1.8139 -4.35335,-1.8139 -0.72556,0.72556 -1.08834,0.72556 -1.45112,0.72556"
   style="fill:#e40018;fill-opacity:1;stroke-width:3.6278"
   sodipodi:nodetypes="cccsccccsccccccscccccccccccccscccccccccccccccssccccccsccccccsccccscccsccccccccscccccccccscc" />
</svg>
